# xmcd
#
# Track frame offsets:
#	150
#	13182
#	25979
#	37748
#	50015
#	59079
#	71933
#	84859
#	97970
#	112096
#	125799
#	138531
#	151725
#	166159
#	180146
#	192392
#	205229
#	220040
#	234876
#	246513
#	260010
#	272869
#	286249
#	299198
#	310210
#	321350
#	335124
#	347610
#
# Disc length: 4799 seconds
# Revision: 0
# Processed by: cddbd v1.5.2PL0 Copyright (c) Steve Scherf et al.
# Submitted via: dBpowerAMP V12.0
#
DISCID=b412bd1c
DTITLE=Dinah Washington - Original Queen of Soul: Three Decades Of Artistry, Disc 1
DYEAR=2014
DGENRE=Jazz
TTITLE0=Evil Gal Blues
TTITLE1=No Love, No Nothin'
TTITLE2=Shoo Shoo Baby
TTITLE3=Million Dollar Smile
TTITLE4=And Her Tears Flowed Like Wine
TTITLE5=All or Nothing
TTITLE6=Blues For a Day
TTITLE7=Chewin' Woman Blues [Aka Chewin' Mama Blues]
TTITLE8=Mellow Mama Blues
TTITLE9=Salty Papa Blues
TTITLE10=Wise Woman Blues
TTITLE11=When a Woman Loves a Man
TTITLE12=I Want To Cry
TTITLE13=I'll Wait
TTITLE14=It's Too Soon To Know
TTITLE15=Mean and Evil Blues
TTITLE16=Record Ban Blues
TTITLE17=Resolution Blues
TTITLE18=Walkin' and Talkin' (and Crying My Blues Away)
TTITLE19=West Side Baby
TTITLE20=You Satisfy
TTITLE21=Am I Really Sorry
TTITLE22=Baby Get Lost
TTITLE23=Good Daddy Blues
TTITLE24=I Only Know
TTITLE25=It Isn't Fair
TTITLE26=Big Deal
TTITLE27=I'll Never Be Free
EXTD=
EXTT0=
EXTT1=
EXTT2=
EXTT3=
EXTT4=
EXTT5=
EXTT6=
EXTT7=
EXTT8=
EXTT9=
EXTT10=
EXTT11=
EXTT12=
EXTT13=
EXTT14=
EXTT15=
EXTT16=
EXTT17=
EXTT18=
EXTT19=
EXTT20=
EXTT21=
EXTT22=
EXTT23=
EXTT24=
EXTT25=
EXTT26=
EXTT27=
PLAYORDER=
